# xmcd
# Track frame offsets:
# 150
# 15395
# 31731
# 50226
# 67729
# 83209
# 99516
# 114987
# 129074
# 148472
# 163850
# 182134
# 199942
# 214084
# 230481
#
# Disc length: 3282 seconds
# Revision: 0
# Processed by: cddbd v1.5.1PL0 Copyright (c) Steve Scherf et al.
# Submitted via: VisiTrax 2.9.10.228 - For more info visit www.synapsa.com
#
DISCID=cc0cd00f
DTITLE=Tillis, Pam - CB90031
DYEAR=1900
DGENRE=Karaoke
TTITLE0=Don't Tell Me What To Do
TTITLE1=One Of Those Things
TTITLE2=Maybe It Was Memphis
TTITLE3=Blue Rose Is
TTITLE4=Shake The Sugar Tree
TTITLE5=Let That Pony Run
TTITLE6=Cleopatra, Queen Of Denial
TTITLE7=Mi Vida Loca
TTITLE8=In Between Dances
TTITLE9=River And The Highway, The
TTITLE10=All The Good Ones Are Gone
TTITLE11=Betty's Got A Bass Boat
TTITLE12=Every Time
TTITLE13=I Said A Prayer For You
TTITLE14=Land Of The Living, The
EXTD=
EXTT0=
EXTT1=
EXTT2=
EXTT3=
EXTT4=
EXTT5=
EXTT6=
EXTT7=
EXTT8=
EXTT9=
EXTT10=
EXTT11=
EXTT12=
EXTT13=
EXTT14=
PLAYORDER=
